<svg xmlns="http://www.w3.org/2000/svg" width="150" height="150" viewBox="0 0 150 150">
<g>
<path d="M 78.99 97.75 C81.24,100.09 82.68,102.00 82.19,102.00 C81.71,102.00 80.47,101.07 79.45,99.94 C78.18,98.54 76.86,98.07 75.29,98.46 C73.28,98.97 73.00,98.67 73.00,96.02 L 73.00 93.00 L 44.00 93.00 L 44.02 90.25 C44.02,88.74 44.36,88.00 44.77,88.60 C46.40,91.05 50.30,92.00 58.68,91.99 C64.55,91.99 68.46,91.49 70.36,90.49 C70.57,90.39 70.77,90.28 70.95,90.19 C72.50,89.37 73.19,89.01 73.58,89.22 C73.93,89.40 74.05,90.05 74.35,91.25 C74.66,92.49 76.75,95.42 78.99,97.75 ZM 106.29 78.00 C107.08,81.04 105.66,80.39 103.54,76.75 C101.14,72.63 100.23,72.03 96.31,72.02 C94.55,72.01 92.84,71.55 92.50,71.00 C92.13,70.41 93.31,70.00 95.41,70.00 C99.30,70.00 105.36,74.46 106.29,78.00 ZM 116.50 104.00 C115.40,104.47 114.05,104.82 113.50,104.76 C112.95,104.71 109.81,104.40 106.53,104.08 C100.60,103.50 100.57,103.49 103.50,102.17 C105.52,101.26 106.56,101.18 106.81,101.92 C107.00,102.51 109.72,103.03 112.83,103.07 C116.92,103.12 117.94,103.38 116.50,104.00 ZM 102.23 91.99 C99.84,94.20 97.99,95.00 95.28,95.00 C90.38,95.00 92.25,93.04 97.88,92.29 C100.15,91.99 102.00,91.39 102.00,90.98 C102.00,90.56 102.79,89.94 103.75,89.60 C104.71,89.26 104.03,90.34 102.23,91.99 Z" fill="rgb(180,83,75)"/>
<path d="M 0.00 0.00 L 150.00 0.00 L 150.00 150.00 L 0.00 150.00 ZM 116.50 104.00 C117.94,103.38 116.92,103.12 112.83,103.07 C111.37,103.05 109.99,102.93 108.92,102.74 C109.91,102.90 111.18,103.00 112.58,103.00 L 118.00 103.00 L 118.00 61.85 L 110.25 61.95 C105.99,62.00 99.31,61.77 95.41,61.42 C89.41,60.89 87.70,61.11 84.26,62.87 C77.28,66.43 73.00,73.65 73.00,81.88 C73.00,86.99 74.01,91.06 76.33,94.61 C75.29,93.23 74.53,91.96 74.35,91.25 C74.05,90.05 73.93,89.40 73.58,89.22 C73.19,89.01 72.50,89.37 70.95,90.19 L 70.95 90.19 C70.77,90.28 70.57,90.39 70.36,90.49 C68.46,91.49 64.55,91.99 58.68,91.99 C50.30,92.00 46.40,91.05 44.77,88.60 C44.36,88.00 44.02,88.74 44.02,90.25 L 44.00 93.00 L 43.81 93.00 L 44.09 87.25 C44.24,84.09 44.28,73.96 44.18,64.75 L 44.00 48.00 L 33.00 48.00 L 33.00 75.33 C33.00,90.37 33.31,102.98 33.69,103.35 C34.07,103.73 42.95,103.92 53.44,103.77 L 72.50 103.50 L 72.80 98.25 L 73.00 94.82 L 73.00 96.02 C73.00,98.67 73.28,98.97 75.29,98.46 C76.86,98.07 78.18,98.54 79.45,99.94 C80.47,101.07 81.71,102.00 82.19,102.00 C82.57,102.00 81.77,100.83 80.33,99.20 C81.49,100.24 82.79,101.25 84.27,102.25 C89.20,105.61 95.71,105.95 101.62,103.18 C101.37,103.57 102.75,103.71 106.53,104.08 C109.81,104.40 112.95,104.71 113.50,104.76 C114.05,104.82 115.40,104.47 116.50,104.00 ZM 102.23 91.99 C104.03,90.34 104.71,89.26 103.75,89.60 C102.79,89.94 102.00,90.56 102.00,90.98 C102.00,91.39 100.15,91.99 97.88,92.29 C93.62,92.86 91.51,94.12 92.86,94.70 C88.04,93.52 84.00,88.85 84.00,82.50 C84.00,76.14 87.90,71.60 92.67,70.45 C92.43,70.60 92.37,70.79 92.50,71.00 C92.84,71.55 94.55,72.01 96.31,72.02 C100.23,72.03 101.14,72.63 103.54,76.75 C105.05,79.34 106.20,80.41 106.46,79.73 C107.46,84.18 105.91,89.06 101.86,92.47 C101.21,93.01 100.54,93.46 99.86,93.82 C100.62,93.37 101.39,92.77 102.23,91.99 ZM 99.25 71.04 C100.13,71.41 100.98,71.92 101.81,72.56 C100.99,71.97 100.12,71.45 99.25,71.04 ZM 107.45 102.37 C107.09,102.23 106.86,102.08 106.81,101.92 C106.78,101.83 106.74,101.75 106.68,101.69 C106.73,101.74 106.77,101.80 106.79,101.87 C106.85,102.05 107.08,102.22 107.45,102.37 Z" fill="rgb(209,58,45)"/>
<path d="M 84.27 102.25 C76.19,96.75 73.00,90.98 73.00,81.88 C73.00,73.65 77.28,66.43 84.26,62.87 C87.70,61.11 89.41,60.89 95.41,61.42 C99.31,61.77 105.99,62.00 110.25,61.95 L 118.00 61.85 L 118.00 82.42 L 118.00 103.00 L 112.58 103.00 C109.46,103.00 107.01,102.52 106.79,101.87 C106.54,101.13 105.00,101.47 102.25,102.87 C96.18,105.97 89.38,105.73 84.27,102.25 ZM 101.86 92.47 C108.15,87.17 108.42,78.33 102.43,73.08 C94.81,66.38 84.00,71.91 84.00,82.50 C84.00,92.75 94.53,98.63 101.86,92.47 ZM 33.69 103.35 C33.31,102.98 33.00,90.37 33.00,75.33 L 33.00 48.00 L 38.50 48.00 L 44.00 48.00 L 44.18 64.75 C44.28,73.96 44.24,84.09 44.09,87.25 L 43.81 93.00 L 58.46 93.00 L 73.10 93.00 L 72.80 98.25 L 72.50 103.50 L 53.44 103.77 C42.95,103.92 34.07,103.73 33.69,103.35 Z" fill="rgb(252,247,245)"/>
</g>
</svg>